<?xml version="1.0" encoding="UTF-8" standalone="no"?>
<!-- Uploaded to: SVG Repo, www.svgrepo.com, Generator: SVG Repo Mixer Tools -->

<svg
   width="666.66699"
   height="600"
   viewBox="0 0 20.00001 18"
   fill="none"
   version="1.1"
   id="svg1"
   sodipodi:docname="commandprompt.svg"
   inkscape:version="1.3.2 (091e20e, 2023-11-25, custom)"
   xmlns:inkscape="http://www.inkscape.org/namespaces/inkscape"
   xmlns:sodipodi="http://sodipodi.sourceforge.net/DTD/sodipodi-0.dtd"
   xmlns="http://www.w3.org/2000/svg"
   xmlns:svg="http://www.w3.org/2000/svg">
  <defs
     id="defs1" />
  <sodipodi:namedview
     id="namedview1"
     pagecolor="#505050"
     bordercolor="#ffffff"
     borderopacity="1"
     inkscape:showpageshadow="0"
     inkscape:pageopacity="0"
     inkscape:pagecheckerboard="1"
     inkscape:deskcolor="#505050"
     inkscape:zoom="0.71859727"
     inkscape:cx="221.26441"
     inkscape:cy="308.23941"
     inkscape:window-width="1920"
     inkscape:window-height="1009"
     inkscape:window-x="-8"
     inkscape:window-y="-8"
     inkscape:window-maximized="1"
     inkscape:current-layer="svg1" />
  <path
     fill-rule="evenodd"
     clip-rule="evenodd"
     d="M 0,3 C 0,1.34315 1.34315,0 3,0 h 14 c 1.6569,0 3,1.34315 3,3 v 12 c 0,1.6569 -1.3431,3 -3,3 H 3 C 1.34315,18 0,16.6569 0,15 Z M 3,2 C 2.44772,2 2,2.44772 2,3 V 4 H 18 V 3 C 18,2.44772 17.5523,2 17,2 Z M 2,15 V 6 h 16 v 9 c 0,0.5523 -0.4477,1 -1,1 H 3 C 2.44772,16 2,15.5523 2,15 Z M 5.70711,8.2929 c -0.39053,-0.3905 -1.02369,-0.3905 -1.41422,0 -0.39052,0.3905 -0.39052,1.0237 0,1.4142 L 5.58579,11 4.29289,12.2929 c -0.39052,0.3905 -0.39052,1.0237 0,1.4142 0.39053,0.3905 1.02369,0.3905 1.41422,0 l 2,-2 c 0.39049,-0.3905 0.39049,-1.0237 0,-1.4142 z"
     fill="#000000"
     id="path1"
     style="fill:#808080;fill-opacity:1" />
</svg>
