<?xml version="1.0" encoding="UTF-8" standalone="no"?>
<!-- Uploaded to: SVG Repo, www.svgrepo.com, Generator: SVG Repo Mixer Tools -->

<svg
   width="10"
   height="10"
   viewBox="0 0 0.3 0.3"
   version="1.1"
   id="svg2"
   sodipodi:docname="ctf_web.svg"
   inkscape:version="1.3.2 (091e20e, 2023-11-25, custom)"
   xmlns:inkscape="http://www.inkscape.org/namespaces/inkscape"
   xmlns:sodipodi="http://sodipodi.sourceforge.net/DTD/sodipodi-0.dtd"
   xmlns="http://www.w3.org/2000/svg"
   xmlns:svg="http://www.w3.org/2000/svg">
  <defs
     id="defs2" />
  <sodipodi:namedview
     id="namedview2"
     pagecolor="#505050"
     bordercolor="#ffffff"
     borderopacity="1"
     inkscape:showpageshadow="0"
     inkscape:pageopacity="0"
     inkscape:pagecheckerboard="1"
     inkscape:deskcolor="#505050"
     inkscape:zoom="22.995112"
     inkscape:cx="3.1311001"
     inkscape:cy="4.718394"
     inkscape:window-width="1920"
     inkscape:window-height="1009"
     inkscape:window-x="-8"
     inkscape:window-y="-8"
     inkscape:window-maximized="1"
     inkscape:current-layer="svg2" />
  <path
     d="m 0.26650077,0.05575341 v -4.077e-4 h -2.913e-4 a 0.14971287,0.14969935 0 0 0 -0.2324627,0 h -2.767e-4 v 4.077e-4 a 0.14945073,0.14943723 0 0 0 0,0.188493 v 4.078e-4 h 2.912e-4 a 0.14971287,0.14969935 0 0 0 0.2324628,0 h 3.058e-4 v -4.078e-4 a 0.14945073,0.14943723 0 0 0 0,-0.188493 z m -0.1092409,-4.077e-4 v -0.0397257 a 0.06601639,0.06601042 0 0 1 0.036991,0.039726 z m 0.042744,0.014562 a 0.24506016,0.24503803 0 0 1 0.012423,0.072811 h -0.055167 v -0.0728108 z m -0.057307,-0.0542877 v 0.039726 h -0.036991 a 0.06601639,0.06601042 0 0 1 0.036991,-0.039726 z m 0,0.054288 v 0.072811 h -0.055167 a 0.24506016,0.24503803 0 0 1 0.012423,-0.072811 z m -0.069716,0.072811 h -0.058065 a 0.13447944,0.13446729 0 0 1 0.026098,-0.072811 h 0.043458 a 0.26144411,0.26142049 0 0 0 -0.011505,0.072811 z m 0,0.014562 a 0.26144411,0.26142049 0 0 0 0.011491,0.072811 h -0.043458 a 0.13447944,0.13446729 0 0 1 -0.026098,-0.072811 z m 0.014563,0 h 0.055152 v 0.072811 h -0.042744 a 0.24506016,0.24503803 0 0 1 -0.012423,-0.072811 z m 0.055152,0.087373 v 0.039726 a 0.06601639,0.06601042 0 0 1 -0.03699,-0.039726 z m 0.014563,0.039726 v -0.039726 h 0.036991 a 0.06601639,0.06601042 0 0 1 -0.036991,0.039726 z m 0,-0.054288 v -0.072811 h 0.055167 a 0.24506016,0.24503803 0 0 1 -0.012423,0.072811 z m 0.069716,-0.072811 h 0.058065 a 0.13447944,0.13446729 0 0 1 -0.026098,0.072811 h -0.043458 a 0.26144411,0.26142049 0 0 0 0.011505,-0.072811 z m 0,-0.014562 a 0.26144411,0.26142049 0 0 0 -0.01149,-0.072811 h 0.043458 a 0.13447944,0.13446729 0 0 1 0.026098,0.072811 z m 0.01969,-0.087373 h -0.036423 a 0.12413935,0.12412814 0 0 0 -0.020986,-0.03492 0.13552801,0.13551577 0 0 1 0.057409,0.03492 z m -0.1359641,-0.03492 a 0.12413935,0.12412814 0 0 0 -0.020971,0.03492 h -0.036452 a 0.13552801,0.13551577 0 0 1 0.057409,-0.03492 z m -0.057409,0.2242287 h 0.036423 a 0.12413935,0.12412814 0 0 0 0.020986,0.03492 0.13552801,0.13551577 0 0 1 -0.057409,-0.03492 z m 0.1359649,0.03492 a 0.12413935,0.12412814 0 0 0 0.020971,-0.03492 h 0.036438 a 0.13552801,0.13551577 0 0 1 -0.057409,0.03492 z"
     id="path1"
     style="stroke-width:0.0145628;fill:#0066ff;fill-opacity:1" />
</svg>
