<?xml version="1.0" encoding="UTF-8" standalone="no"?>
<svg
   width="10"
   height="10"
   fill="currentColor"
   class="bi bi-file-anonymous"
   viewBox="0 0 10 10"
   version="1.1"
   id="svg1"
   sodipodi:docname="ctf_pwn.svg"
   inkscape:version="1.3.2 (091e20e, 2023-11-25, custom)"
   xmlns:inkscape="http://www.inkscape.org/namespaces/inkscape"
   xmlns:sodipodi="http://sodipodi.sourceforge.net/DTD/sodipodi-0.dtd"
   xmlns="http://www.w3.org/2000/svg"
   xmlns:svg="http://www.w3.org/2000/svg">
  <defs
     id="defs1" />
  <sodipodi:namedview
     id="namedview1"
     pagecolor="#505050"
     bordercolor="#ffffff"
     borderopacity="1"
     inkscape:showpageshadow="0"
     inkscape:pageopacity="0"
     inkscape:pagecheckerboard="1"
     inkscape:deskcolor="#505050"
     showgrid="false"
     inkscape:zoom="32"
     inkscape:cx="0.609375"
     inkscape:cy="3.734375"
     inkscape:window-width="1920"
     inkscape:window-height="1009"
     inkscape:window-x="-8"
     inkscape:window-y="-8"
     inkscape:window-maximized="1"
     inkscape:current-layer="svg1" />
  <path
     d="M 5,0 C 2.7908889,0 1,0.5973333 1,1.3333333 V 5.1111111 C 1,6.2404444 2.204,9.351556 5,10 7.796,9.351556 9,6.2404444 9,5.1111111 V 1.3333333 C 9,0.5971111 7.209111,0 5,0 Z m 0,0.4444444 c 2.333333,0 3.555556,0.6606667 3.555556,0.8888889 v 3.7777778 c 0,0.9193333 -0.962667,3.4495559 -3.111112,4.2882219 V 8 H 4.555556 V 9.399333 C 2.4071111,8.560667 1.4444444,6.0304444 1.4444444,5.1111111 V 1.3333333 C 1.4444444,1.1051111 2.6666667,0.4444444 5,0.4444444 Z M 3.2222222,2 C 2.7786667,2 2.3011111,2.1953333 1.8888889,2.8888889 2.3228889,2.5866667 2.6917778,2.4444444 3,2.4444444 c 0.5973333,0 0.8948889,0.6995556 0.9862222,0.7917778 a 0.33422222,0.33422222 0 0 0 0.4722218,0 0.33422222,0.33422222 0 0 0 0,-0.4722222 C 4.376667,2.6828889 3.9862222,2 3.2222222,2 Z M 6.777778,2 c -0.764,0 -1.154445,0.6831111 -1.236222,0.764 a 0.33422222,0.33422222 0 0 0 0,0.472 c 0.131111,0.1302222 0.342222,0.1302222 0.472222,0 C 6.105111,3.144 6.402889,2.4444444 7,2.4444444 c 0.308222,0 0.677111,0.1422223 1.111111,0.4444445 C 7.698889,2.1953333 7.221333,2 6.777778,2 Z M 3,3.3333333 c -0.3644444,0 -0.6848889,0.132 -0.8888889,0.3333334 C 2.3151111,3.868 2.6355556,4 3,4 3.3644444,4 3.6848889,3.868 3.8888889,3.6666667 3.6848889,3.4653333 3.3644444,3.3333333 3,3.3333333 Z m 4,0 c -0.364444,0 -0.684889,0.132 -0.888889,0.3333334 C 6.315111,3.868 6.635556,4 7,4 7.364444,4 7.684889,3.868 7.888889,3.6666667 7.684889,3.4653333 7.364444,3.3333333 7,3.3333333 Z m -5.1111111,2 L 3,7.1111111 H 4.555556 L 5,6.6666667 5.444444,7.1111111 H 7 L 8.111111,5.3333333 6.777778,6.4444444 H 5.888889 L 5.222222,5.7777778 H 4.777778 L 4.111111,6.4444444 H 3.2222222 Z"
     id="path1"
     style="fill:#ff3300;fill-opacity:1;stroke-width:0.222222" />
</svg>
