<?xml version="1.0" encoding="UTF-8" standalone="no"?>
<!-- Created with Inkscape (http://www.inkscape.org/) -->

<svg
   width="10mm"
   height="10mm"
   viewBox="0 0 10 10"
   version="1.1"
   id="svg1"
   inkscape:version="1.3.2 (091e20e, 2023-11-25, custom)"
   sodipodi:docname="gdb.svg"
   xmlns:inkscape="http://www.inkscape.org/namespaces/inkscape"
   xmlns:sodipodi="http://sodipodi.sourceforge.net/DTD/sodipodi-0.dtd"
   xmlns="http://www.w3.org/2000/svg"
   xmlns:svg="http://www.w3.org/2000/svg">
  <sodipodi:namedview
     id="namedview1"
     pagecolor="#505050"
     bordercolor="#ffffff"
     borderopacity="1"
     inkscape:showpageshadow="0"
     inkscape:pageopacity="0"
     inkscape:pagecheckerboard="1"
     inkscape:deskcolor="#505050"
     inkscape:document-units="mm"
     inkscape:zoom="11.588215"
     inkscape:cx="6.6015341"
     inkscape:cy="10.139611"
     inkscape:window-width="1920"
     inkscape:window-height="1009"
     inkscape:window-x="-8"
     inkscape:window-y="-8"
     inkscape:window-maximized="1"
     inkscape:current-layer="layer1" />
  <defs
     id="defs1">
    <inkscape:path-effect
       effect="fillet_chamfer"
       id="path-effect1"
       is_visible="true"
       lpeversion="1"
       nodesatellites_param="F,0,0,1,0,1.3229167,0,1 @ F,0,0,1,0,1.3229167,0,1 @ F,0,0,1,0,1.3229167,0,1 @ F,0,0,1,0,1.3229167,0,1"
       radius="5"
       unit="px"
       method="auto"
       mode="F"
       chamfer_steps="1"
       flexible="false"
       use_knot_distance="true"
       apply_no_radius="true"
       apply_with_radius="true"
       only_selected="false"
       hide_knots="false" />
  </defs>
  <g
     inkscape:label="Слой 1"
     inkscape:groupmode="layer"
     id="layer1">
    <path
       id="rect1"
       style="fill:#808080;stroke-width:8.79109"
       d="M 1.3229167 0 A 1.3229167 1.3229167 0 0 0 0 1.3229167 L 0 8.6769897 A 1.3229167 1.3229167 0 0 0 1.3229167 9.9999064 L 8.6769897 9.9999064 A 1.3229167 1.3229167 0 0 0 9.9999064 8.6769897 L 9.9999064 1.3229167 A 1.3229167 1.3229167 0 0 0 8.6769897 0 L 1.3229167 0 z M 2.3714315 3.1367594 C 2.5367958 3.1367594 2.697912 3.1518031 2.8540894 3.1812012 C 3.0121041 3.2087619 3.169201 3.2460839 3.3253784 3.2938558 L 3.3253784 3.9635824 C 3.1894122 3.899274 3.0385739 3.8469084 2.8732096 3.806486 C 2.7096827 3.7642262 2.5443176 3.7434408 2.3771159 3.7434408 C 2.2080768 3.7434408 2.0585017 3.7724945 1.9280477 3.8312907 C 1.799431 3.8900869 1.6906805 3.9740327 1.6024862 4.0824382 C 1.5161293 4.1908436 1.4499832 4.3238822 1.4040487 4.481897 C 1.3599515 4.6399117 1.3379028 4.8183109 1.3379028 5.016748 C 1.3379028 5.2078357 1.3557026 5.3802059 1.3906128 5.5345459 C 1.425523 5.6870485 1.4813912 5.8178478 1.5585612 5.9262533 C 1.6375686 6.0328214 1.7387973 6.1142407 1.8619019 6.1711995 C 1.9850064 6.2281584 2.1345815 6.2569824 2.3109701 6.2569824 C 2.3532298 6.2569824 2.3898054 6.2557192 2.4210409 6.2538818 C 2.4522763 6.2502071 2.4818468 6.2459581 2.5094076 6.240446 C 2.5369683 6.2349338 2.5625195 6.2281584 2.5864054 6.2208089 C 2.6121288 6.2134594 2.6389432 6.2051911 2.6665039 6.1960042 L 2.6665039 5.275647 L 2.0546549 5.275647 L 2.0546549 4.7159912 L 3.3362305 4.7159912 L 3.3362305 6.637321 C 3.1708662 6.714491 2.9979792 6.7711056 2.8179159 6.8078532 C 2.6378525 6.8446008 2.4421704 6.863147 2.2308716 6.863147 C 1.9809878 6.863147 1.7562519 6.8245618 1.5559774 6.7473918 C 1.3575402 6.6702218 1.1881558 6.5552126 1.0485148 6.40271 C 0.90887385 6.2502073 0.8013865 6.0613006 0.72605387 5.8353027 C 0.65255863 5.6093049 0.61598307 5.3474767 0.61598307 5.049821 C 0.61598307 4.7503279 0.65456828 4.4817243 0.73173828 4.2447021 C 0.81074567 4.00768 0.92449164 3.8077489 1.0733195 3.644222 C 1.2239847 3.4788577 1.4078961 3.3528242 1.624707 3.2664673 C 1.8433554 3.1801104 2.0921496 3.1367594 2.3714315 3.1367594 z M 3.8266398 3.1977376 L 4.8932414 3.1977376 C 5.1688485 3.1977376 5.4098912 3.2323035 5.6156779 3.302124 C 5.823302 3.3701071 5.9956722 3.4761016 6.1334757 3.6194173 C 6.2712793 3.762733 6.3745177 3.9446347 6.4425008 4.1651204 C 6.5123213 4.3856062 6.5468872 4.6481808 6.5468872 4.953186 C 6.5468872 5.232468 6.5123213 5.4860279 6.4425008 5.7138631 C 6.3745177 5.9416984 6.2670304 6.136634 6.1200399 6.2983236 C 5.9748868 6.4581757 5.7882194 6.5821996 5.5603841 6.6703939 C 5.3325489 6.7567508 5.0596963 6.799585 4.7418294 6.799585 L 3.8266398 6.799585 L 3.8266398 3.1977376 z M 7.0486654 3.1977376 L 8.2119019 3.1977376 C 8.6216378 3.1977376 8.9283098 3.2693959 9.1322591 3.4127116 C 9.3380458 3.5560273 9.4407674 3.7724949 9.4407674 4.0628011 C 9.4407674 4.1528328 9.4297431 4.2410275 9.4076945 4.3273844 C 9.3874833 4.411904 9.3556735 4.4903376 9.3115763 4.5619954 C 9.2674792 4.6336533 9.2123575 4.6970433 9.1462118 4.7521647 C 9.080066 4.8072861 9.0016324 4.8501203 8.9116007 4.8813558 C 9.0016324 4.8960548 9.0870711 4.9256253 9.1679159 4.9697225 C 9.250598 5.0119823 9.3222562 5.0678504 9.3828898 5.1376709 C 9.4453608 5.205654 9.4942239 5.2868437 9.5291341 5.3805501 C 9.5658817 5.4742566 9.5844279 5.5789878 9.5844279 5.6947428 C 9.5844279 6.062219 9.4611505 6.3385741 9.2149414 6.5241496 C 8.9687323 6.7078877 8.6131972 6.799585 8.1483398 6.799585 L 7.0486654 6.799585 L 7.0486654 3.1977376 z M 7.7209757 3.7351725 L 7.7209757 4.6886027 L 8.1318034 4.6886027 C 8.2420462 4.6886027 8.3350067 4.6755687 8.4103394 4.6498454 C 8.4875094 4.6222847 8.5496361 4.5857091 8.597408 4.5397746 C 8.6470173 4.4920027 8.6821 4.4376274 8.7023112 4.3769938 C 8.7243598 4.3163602 8.7353841 4.2514774 8.7353841 4.1816569 C 8.7353841 4.1136738 8.7243598 4.0517767 8.7023112 3.9966553 C 8.6802626 3.9415338 8.6444335 3.8946804 8.5948242 3.8560954 C 8.5470523 3.8175104 8.4844088 3.7884566 8.4072388 3.7682454 C 8.3319061 3.7461969 8.2402089 3.7351725 8.1318034 3.7351725 L 7.7209757 3.7351725 z M 4.5046346 3.7651449 L 4.5046346 6.2321777 L 4.8022909 6.2321777 C 5.1348568 6.2321777 5.3876703 6.1329586 5.5603841 5.9345215 C 5.7330979 5.7360843 5.819283 5.4233834 5.819283 4.997111 C 5.819283 4.8023486 5.8040097 4.6287152 5.7727743 4.4762126 C 5.7415388 4.3237099 5.6879099 4.1954371 5.6125773 4.0907064 C 5.5390821 3.9841383 5.439863 3.9029486 5.3149211 3.8478271 C 5.1899792 3.7927057 5.0348919 3.7651449 4.8493164 3.7651449 L 4.5046346 3.7651449 z M 7.7209757 5.2069173 L 7.7209757 6.2456136 L 8.1953654 6.2456136 C 8.3037709 6.2456136 8.3982242 6.2318332 8.479069 6.2042725 C 8.5617512 6.1767117 8.6306533 6.1393897 8.6857747 6.0916178 C 8.7408962 6.0420086 8.7822375 5.9841307 8.8097982 5.917985 C 8.8391963 5.8518393 8.8537231 5.7809275 8.8537231 5.7055949 C 8.8537231 5.5494175 8.7950989 5.4274033 8.6775065 5.339209 C 8.5617515 5.2510147 8.3833524 5.2069173 8.1426554 5.2069173 L 7.7209757 5.2069173 z " />
  </g>
</svg>
