<?xml version="1.0" encoding="UTF-8" standalone="no"?>
<!-- Created with Inkscape (http://www.inkscape.org/) -->

<svg
   width="10mm"
   height="10mm"
   viewBox="0 0 10 10"
   version="1.1"
   id="svg1"
   inkscape:version="1.3.2 (091e20e, 2023-11-25, custom)"
   sodipodi:docname="pwntools.svg"
   xmlns:inkscape="http://www.inkscape.org/namespaces/inkscape"
   xmlns:sodipodi="http://sodipodi.sourceforge.net/DTD/sodipodi-0.dtd"
   xmlns="http://www.w3.org/2000/svg"
   xmlns:svg="http://www.w3.org/2000/svg">
  <sodipodi:namedview
     id="namedview1"
     pagecolor="#505050"
     bordercolor="#ffffff"
     borderopacity="1"
     inkscape:showpageshadow="0"
     inkscape:pageopacity="0"
     inkscape:pagecheckerboard="1"
     inkscape:deskcolor="#505050"
     inkscape:document-units="mm"
     inkscape:zoom="11.588215"
     inkscape:cx="8.41372"
     inkscape:cy="16.956882"
     inkscape:window-width="1920"
     inkscape:window-height="1009"
     inkscape:window-x="-8"
     inkscape:window-y="-8"
     inkscape:window-maximized="1"
     inkscape:current-layer="layer1" />
  <defs
     id="defs1">
    <inkscape:path-effect
       effect="fillet_chamfer"
       id="path-effect1"
       is_visible="true"
       lpeversion="1"
       nodesatellites_param="F,0,0,1,0,1.3229167,0,1 @ F,0,0,1,0,1.3229167,0,1 @ F,0,0,1,0,1.3229167,0,1 @ F,0,0,1,0,1.3229167,0,1"
       radius="5"
       unit="px"
       method="auto"
       mode="F"
       chamfer_steps="1"
       flexible="false"
       use_knot_distance="true"
       apply_no_radius="true"
       apply_with_radius="true"
       only_selected="false"
       hide_knots="false" />
  </defs>
  <g
     inkscape:label="Слой 1"
     inkscape:groupmode="layer"
     id="layer1">
    <path
       id="rect1"
       style="fill:#808080;fill-opacity:1;stroke-width:15.3286"
       d="M 1.3229167 0 A 1.3229167 1.3229167 0 0 0 0 1.3229167 L 0 8.6769897 A 1.3229167 1.3229167 0 0 0 1.3229167 9.9999064 L 8.6769897 9.9999064 A 1.3229167 1.3229167 0 0 0 9.9999064 8.6769897 L 9.9999064 1.3229167 A 1.3229167 1.3229167 0 0 0 8.6769897 0 L 1.3229167 0 z M 2.2375895 1.5130859 C 2.4029538 1.5130859 2.5497728 1.546159 2.6783895 1.6123047 C 2.8070062 1.6784504 2.9144935 1.7729038 3.0008504 1.8960083 C 3.0890447 2.0172754 3.1559372 2.1653577 3.2018717 2.3399089 C 3.2478063 2.5126227 3.2711182 2.7070416 3.2711182 2.9238525 C 3.2711182 3.1810859 3.2340258 3.4035824 3.1605306 3.5909953 C 3.0888727 3.7784081 2.9881608 3.9347586 2.8577067 4.0597005 C 2.72909 4.182805 2.5762421 4.2745023 2.3998535 4.3351359 C 2.2234649 4.3939321 2.0318021 4.4235026 1.8241781 4.4235026 C 1.7543576 4.4235026 1.6841922 4.4187369 1.6143717 4.40955 C 1.5445513 4.4003631 1.4811613 4.3885923 1.4242025 4.3738932 L 1.4242025 5.4678833 L 0.75189209 5.4678833 L 0.75189209 1.5735474 L 1.3337687 1.5735474 L 1.3497884 1.9869588 C 1.4067472 1.915301 1.4658882 1.8499013 1.5265218 1.7911051 C 1.5889928 1.732309 1.6558853 1.6826994 1.7275431 1.642277 C 1.799201 1.6000173 1.8763714 1.5682074 1.9590535 1.5461589 C 2.0417357 1.5241103 2.1346962 1.5130859 2.2375895 1.5130859 z M 8.443929 1.5130859 C 8.5872448 1.5130859 8.7125318 1.5366275 8.8190999 1.5843994 C 8.925668 1.6303339 9.0146092 1.69648 9.0862671 1.7828369 C 9.157925 1.8673564 9.211037 1.9705948 9.2459473 2.091862 C 9.2826949 2.2112917 9.301241 2.3450768 9.301241 2.4939046 L 9.301241 4.3738932 L 8.6289307 4.3738932 L 8.6289307 2.5491984 C 8.6289307 2.2423558 8.5146679 2.0887614 8.2868327 2.0887614 C 8.1729151 2.0887614 8.0639348 2.1348684 7.9592041 2.2267375 C 7.8563108 2.3186065 7.7468138 2.4433768 7.6310588 2.6013916 L 7.6310588 4.3738932 L 6.9587484 4.3738932 L 6.9587484 1.5735474 L 7.5401082 1.5735474 L 7.5566447 1.9869588 C 7.6136035 1.915301 7.6722278 1.8499013 7.7328613 1.7911051 C 7.7953323 1.732309 7.8627416 1.6826994 7.9343994 1.642277 C 8.0060573 1.6000173 8.0832277 1.5682074 8.1659098 1.5461589 C 8.248592 1.5241103 8.3410357 1.5130859 8.443929 1.5130859 z M 3.4943604 1.5735474 L 4.1335978 1.5735474 L 4.3346191 3.155363 L 4.3816447 3.5884115 L 4.4948161 3.1998047 L 4.7759359 2.3481771 L 5.2885661 2.3481771 L 5.5888062 3.1941203 L 5.718514 3.5935791 L 5.7707072 3.1501953 L 5.9386556 1.5735474 L 6.5479207 1.5735474 L 6.1536296 4.3738932 L 5.4069051 4.3738932 L 5.1092489 3.4860921 L 5.0182983 3.1775838 L 4.9273478 3.4943604 L 4.6405436 4.3738932 L 3.8912354 4.3738932 L 3.4943604 1.5735474 z M 2.0804932 2.0887614 C 1.9665755 2.0887614 1.8570785 2.1348684 1.7523478 2.2267375 C 1.6494545 2.3186065 1.5399575 2.4433768 1.4242025 2.6013916 L 1.4242025 3.8250895 C 1.4774865 3.8453007 1.5428861 3.8618372 1.6200562 3.8746989 C 1.6990635 3.8875606 1.77899 3.8943359 1.8598348 3.8943359 C 1.9664029 3.8943359 2.0628659 3.8722872 2.1492228 3.8281901 C 2.2374171 3.784093 2.3118314 3.7214494 2.372465 3.6406047 C 2.434936 3.5597599 2.4825359 3.4612872 2.5156087 3.3455322 C 2.5486816 3.2279398 2.5652181 3.0969109 2.5652181 2.9517578 C 2.5652181 2.7974178 2.5541938 2.6658721 2.5321452 2.5574666 C 2.5100966 2.4490612 2.4782868 2.36012 2.436027 2.2902995 C 2.3956046 2.220479 2.3447319 2.1696062 2.2840983 2.1383708 C 2.2253021 2.1052979 2.1576632 2.0887614 2.0804932 2.0887614 z M 3.0980021 6.1463949 C 3.3942802 6.1463949 3.616891 6.2445801 3.7661784 6.4409505 C 3.9154658 6.6373209 3.9904541 6.9241827 3.9904541 7.3008464 C 3.9904541 7.5052553 3.9663384 7.6813572 3.9181071 7.8294963 C 3.8710241 7.9776353 3.8055673 8.0995344 3.7217367 8.1948486 C 3.6390544 8.2901629 3.541271 8.3607874 3.4287313 8.406722 C 3.3173399 8.4526566 3.1980821 8.4754517 3.0706136 8.4754517 C 2.7743355 8.4754517 2.551208 8.3772664 2.4019206 8.180896 C 2.2526332 7.9833773 2.1781616 7.6970322 2.1781616 7.3215169 C 2.1781616 7.117108 2.2018754 6.9404893 2.2489583 6.7923503 C 2.2971897 6.6442112 2.3626465 6.5228289 2.4453288 6.4275146 C 2.5291594 6.3322004 2.626426 6.2615759 2.7378174 6.2156413 C 2.8503571 6.1697067 2.9705336 6.1463949 3.0980021 6.1463949 z M 5.0374186 6.1463949 C 5.3336967 6.1463949 5.5568242 6.2445801 5.7061117 6.4409505 C 5.8553991 6.6373209 5.9298706 6.9241827 5.9298706 7.3008464 C 5.9298706 7.5052553 5.9057549 7.6813572 5.8575236 7.8294963 C 5.8104406 7.9776353 5.7449838 8.0995344 5.6611532 8.1948486 C 5.5784709 8.2901629 5.4806875 8.3607874 5.3681478 8.406722 C 5.2567564 8.4526566 5.1374986 8.4754517 5.0100301 8.4754517 C 4.713752 8.4754517 4.4911413 8.3772664 4.3418538 8.180896 C 4.1925664 7.9833773 4.1175781 7.6970322 4.1175781 7.3215169 C 4.1175781 7.117108 4.1412919 6.9404893 4.1883748 6.7923503 C 4.2366062 6.6442112 4.302063 6.5228289 4.3847453 6.4275146 C 4.4685759 6.3322004 4.5663593 6.2615759 4.6777507 6.2156413 C 4.7902904 6.1697067 4.9099501 6.1463949 5.0374186 6.1463949 z M 8.9803304 6.1463949 C 9.0251166 6.1463949 9.0716255 6.1490361 9.1198568 6.1536296 C 9.1692365 6.1570747 9.2174678 6.1622423 9.2645508 6.1691325 C 9.3127821 6.1748743 9.358889 6.1821664 9.4025269 6.1913534 C 9.4473131 6.1993919 9.4882523 6.2080047 9.525 6.2171916 L 9.525 6.6047648 C 9.4882523 6.5909844 9.447715 6.5785247 9.4040771 6.567041 C 9.3604393 6.5555574 9.3152511 6.545624 9.2681681 6.5375854 C 9.2222335 6.5283985 9.1757247 6.5215083 9.1286418 6.5169149 C 9.0815588 6.5123214 9.0367725 6.5101969 8.994283 6.5101969 C 8.9196393 6.5101969 8.8563069 6.5161684 8.8046305 6.5288005 C 8.7529541 6.5402841 8.7108091 6.5571077 8.6775065 6.5789266 C 8.6442039 6.5995972 8.6200882 6.6254354 8.6051595 6.6564412 C 8.5902308 6.6874471 8.5824219 6.7218981 8.5824219 6.7597941 C 8.5824219 6.8068771 8.5979248 6.8478163 8.6289307 6.8822673 C 8.6610849 6.9155698 8.7033447 6.945657 8.7550212 6.9732178 C 8.8078459 6.9996302 8.8668145 7.0250665 8.9322713 7.0491821 C 8.9988765 7.0721494 9.0664578 7.0975857 9.1353597 7.1251465 C 9.20541 7.1515589 9.2735081 7.1816461 9.3389648 7.216097 C 9.40557 7.2505479 9.4645386 7.2928078 9.516215 7.3421875 C 9.5690398 7.3915672 9.6112997 7.4501338 9.6423055 7.5178874 C 9.6744597 7.5844925 9.6903646 7.6637298 9.6903646 7.755599 C 9.6903646 7.878474 9.6675695 7.985272 9.6216349 8.0759928 C 9.5768487 8.1667137 9.5135163 8.2415871 9.4319824 8.3013021 C 9.3504485 8.3598687 9.2530671 8.4038511 9.1405273 8.4325602 C 9.0279876 8.4612693 8.9052847 8.4754517 8.7720744 8.4754517 C 8.6537928 8.4754517 8.5397027 8.4685615 8.4294596 8.4547811 C 8.3192166 8.4410007 8.2097773 8.4182056 8.1018311 8.3860514 L 8.1018311 7.9674723 C 8.1546558 7.9858462 8.2097774 8.0030717 8.2671956 8.0191488 C 8.3246139 8.0352259 8.3823767 8.0494082 8.4397949 8.0620402 C 8.4983615 8.0735238 8.5560095 8.0825385 8.6134277 8.0894287 C 8.670846 8.0963189 8.7268862 8.099764 8.7808594 8.099764 C 8.8612449 8.099764 8.9292282 8.0928738 8.985498 8.0790934 C 9.0417679 8.065313 9.0878748 8.046365 9.1234741 8.0222493 C 9.1590734 7.9981337 9.1849117 7.969769 9.2009888 7.9364665 C 9.2170659 7.9031639 9.2252767 7.8660717 9.2252767 7.8258789 C 9.2252767 7.7707574 9.2088551 7.7251673 9.1767008 7.6884196 C 9.145695 7.6505236 9.1043538 7.6168764 9.0526774 7.5881673 C 9.001001 7.5594582 8.9420324 7.53362 8.8754272 7.5106527 C 8.8099705 7.4876854 8.742791 7.4631678 8.6738892 7.4367554 C 8.6061356 7.410343 8.5389562 7.3806577 8.4723511 7.3473551 C 8.4068943 7.3140526 8.3483276 7.2727114 8.2966512 7.2233317 C 8.2449748 7.173952 8.2032317 7.1153854 8.1710775 7.0476318 C 8.1400716 6.97873 8.1245687 6.8960476 8.1245687 6.799585 C 8.1245687 6.7111609 8.1404736 6.6271579 8.1726278 6.5479207 C 8.204782 6.4686836 8.2551378 6.3997816 8.3240397 6.341215 C 8.3929416 6.2815 8.4817103 6.2345893 8.5896566 6.2001383 C 8.6976029 6.164539 8.8275979 6.1463949 8.9803304 6.1463949 z M 0.31109212 6.1846354 L 1.9781738 6.1846354 L 1.9781738 6.5375854 L 1.361674 6.5375854 L 1.361674 8.4356608 L 0.92759196 8.4356608 L 0.92759196 6.5375854 L 0.31109212 6.5375854 L 0.31109212 6.1846354 z M 6.3329468 6.1846354 L 6.7634115 6.1846354 L 6.7634115 8.0723755 L 7.7142578 8.0723755 L 7.7142578 8.4356608 L 6.3329468 8.4356608 L 6.3329468 6.1846354 z M 3.0840495 6.5288005 C 3.0025156 6.5288005 2.9332117 6.5460259 2.8757935 6.5804769 C 2.8183752 6.6137795 2.7705458 6.6633315 2.7326497 6.7287882 C 2.6959021 6.794245 2.66926 6.8752048 2.6520345 6.9716675 C 2.634809 7.0669818 2.6261963 7.176823 2.6261963 7.3008464 C 2.6261963 7.567267 2.6614511 7.765762 2.7326497 7.8966756 C 2.8049967 8.0275892 2.92213 8.0930461 3.0840495 8.0930461 C 3.1655834 8.0930461 3.235404 8.0762225 3.2928223 8.0429199 C 3.3513889 8.008469 3.3987015 7.9585151 3.4354492 7.8930583 C 3.4721969 7.8276015 3.4993557 7.7475604 3.5165812 7.6522461 C 3.5338067 7.5557835 3.5424194 7.4455403 3.5424194 7.3215169 C 3.5424194 7.0550963 3.5066478 6.8560845 3.4354492 6.7251709 C 3.3642506 6.5942573 3.2471173 6.5288005 3.0840495 6.5288005 z M 5.0239827 6.5288005 C 4.9424488 6.5288005 4.8726282 6.5460259 4.81521 6.5804769 C 4.7577917 6.6137795 4.710479 6.6633315 4.672583 6.7287882 C 4.6358353 6.794245 4.6086765 6.8752048 4.591451 6.9716675 C 4.5742255 7.0669818 4.5656128 7.176823 4.5656128 7.3008464 C 4.5656128 7.567267 4.6013844 7.765762 4.672583 7.8966756 C 4.74493 8.0275892 4.8620633 8.0930461 5.0239827 8.0930461 C 5.1055166 8.0930461 5.1748205 8.0762225 5.2322388 8.0429199 C 5.2908054 8.008469 5.3386348 7.9585151 5.3753825 7.8930583 C 5.4121302 7.8276015 5.4387723 7.7475604 5.4559977 7.6522461 C 5.4732232 7.5557835 5.4818359 7.4455403 5.4818359 7.3215169 C 5.4818359 7.0550963 5.4465811 6.8560845 5.3753825 6.7251709 C 5.3041839 6.5942573 5.1870505 6.5288005 5.0239827 6.5288005 z " />
  </g>
</svg>
