<?xml version="1.0" encoding="UTF-8" standalone="no"?>
<!-- Created with Inkscape (http://www.inkscape.org/) -->

<svg
   width="10mm"
   height="10mm"
   viewBox="0 0 10 10"
   version="1.1"
   id="svg1"
   inkscape:version="1.3.2 (091e20e, 2023-11-25, custom)"
   sodipodi:docname="sql.svg"
   xmlns:inkscape="http://www.inkscape.org/namespaces/inkscape"
   xmlns:sodipodi="http://sodipodi.sourceforge.net/DTD/sodipodi-0.dtd"
   xmlns="http://www.w3.org/2000/svg"
   xmlns:svg="http://www.w3.org/2000/svg">
  <sodipodi:namedview
     id="namedview1"
     pagecolor="#505050"
     bordercolor="#ffffff"
     borderopacity="1"
     inkscape:showpageshadow="0"
     inkscape:pageopacity="0"
     inkscape:pagecheckerboard="1"
     inkscape:deskcolor="#505050"
     inkscape:document-units="mm"
     inkscape:zoom="8.1941057"
     inkscape:cx="21.295795"
     inkscape:cy="19.831328"
     inkscape:window-width="1920"
     inkscape:window-height="1009"
     inkscape:window-x="-8"
     inkscape:window-y="-8"
     inkscape:window-maximized="1"
     inkscape:current-layer="layer1" />
  <defs
     id="defs1" />
  <g
     inkscape:label="Слой 1"
     inkscape:groupmode="layer"
     id="layer1">
    <path
       id="path1"
       style="fill:#808080;stroke-width:9.52741"
       d="M 5.0002116 0 A 5 5 0 0 0 0 5.0002116 A 5 5 0 0 0 5.0002116 9.9999064 A 5 5 0 0 0 9.9999064 5.0002116 A 5 5 0 0 0 5.0002116 0 z M 2.4277588 2.9409058 C 2.4904595 2.9409058 2.5555719 2.9442934 2.6230957 2.9507243 C 2.6922272 2.9555474 2.7597512 2.9627821 2.8256673 2.9724284 C 2.8931911 2.9804669 2.9578442 2.9910893 3.0189372 3.003951 C 3.0816379 3.015205 3.1385394 3.0272628 3.1899862 3.0401245 L 3.1899862 3.5827271 C 3.1385394 3.5634345 3.0820972 3.5455774 3.0210042 3.5295003 C 2.9599113 3.5134232 2.8967511 3.4999299 2.830835 3.4886759 C 2.7665266 3.4758143 2.7014142 3.466168 2.635498 3.4597371 C 2.5695819 3.4533063 2.5068811 3.4499186 2.4473958 3.4499186 C 2.3428947 3.4499186 2.2541259 3.4585888 2.181779 3.4762736 C 2.109432 3.4923507 2.0501189 3.5160071 2.0034953 3.5465535 C 1.9568717 3.5754923 1.9231097 3.6116659 1.9022095 3.6550741 C 1.8813092 3.6984822 1.8706868 3.7467136 1.8706868 3.7997681 C 1.8706868 3.8656842 1.892391 3.9225858 1.9357992 3.9708171 C 1.980815 4.0174406 2.0396688 4.0598728 2.1120158 4.0984578 C 2.1859704 4.1354352 2.26894 4.1711494 2.3605794 4.2049113 C 2.4538266 4.2370655 2.5483372 4.2722629 2.6447998 4.310848 C 2.7428701 4.3478253 2.8378975 4.3902575 2.9295369 4.4384888 C 3.0227841 4.4867201 3.1057536 4.5455739 3.1781006 4.6147054 C 3.2520552 4.6838369 3.3103923 4.7658303 3.3538005 4.8606852 C 3.3988163 4.9539324 3.4214966 5.0648646 3.4214966 5.1934814 C 3.4214966 5.3655064 3.3891701 5.5150238 3.3248617 5.6420329 C 3.262161 5.769042 3.173909 5.874175 3.0597616 5.9577759 C 2.9456141 6.0397691 2.8095901 6.1010345 2.6520345 6.1412272 C 2.4944789 6.18142 2.3227981 6.2016886 2.1363037 6.2016886 C 1.9707096 6.2016886 1.8105698 6.1920424 1.6562297 6.1727498 C 1.5018895 6.1534573 1.3489844 6.1211308 1.1978597 6.0761149 L 1.1978597 5.4901042 C 1.2718144 5.5158275 1.3489846 5.5399432 1.4293701 5.5624512 C 1.5097556 5.5849591 1.5903136 5.6052278 1.6706991 5.6229126 C 1.7526923 5.6389897 1.8337096 5.6515069 1.9140951 5.6611532 C 1.9944806 5.6707994 2.0726269 5.6756226 2.1481893 5.6756226 C 2.260729 5.6756226 2.3562157 5.6659763 2.4349935 5.6466838 C 2.5137713 5.6273912 2.5784243 5.600864 2.6282633 5.5671021 C 2.6781024 5.5333401 2.7142759 5.4933196 2.7367839 5.446696 C 2.7592918 5.4000724 2.7703735 5.3484533 2.7703735 5.2921834 C 2.7703735 5.2150134 2.7476933 5.1508771 2.7026774 5.0994303 C 2.6592692 5.0463759 2.6013915 4.99958 2.5290446 4.9593872 C 2.4566976 4.9191945 2.3742449 4.8830209 2.2809977 4.8508667 C 2.1893583 4.8187125 2.095307 4.7844912 1.9988444 4.7475138 C 1.9039895 4.7105365 1.8099383 4.6685637 1.7166911 4.6219401 C 1.6250516 4.5753165 1.5430582 4.5174388 1.4707113 4.4483073 C 1.3983643 4.3791758 1.3395105 4.2971824 1.2944946 4.2023275 C 1.2510865 4.1058649 1.2293823 3.9901095 1.2293823 3.8550618 C 1.2293823 3.7312682 1.2520626 3.6140773 1.2970785 3.5031453 C 1.3420943 3.3922134 1.4124892 3.2957505 1.5089518 3.2137573 C 1.6054144 3.1301564 1.7293806 3.0640679 1.8805054 3.0158366 C 2.0316301 2.9659976 2.2139334 2.9409058 2.4277588 2.9409058 z M 5.0539551 2.9409058 C 5.4687443 2.9409058 5.780813 3.0779059 5.9898153 3.3512166 C 6.1988176 3.6245273 6.3034912 4.0190488 6.3034912 4.5351237 C 6.3034912 4.7811033 6.2783994 4.9991208 6.2285604 5.1888306 C 6.1787214 5.3785403 6.1078097 5.5405749 6.0161702 5.6756226 C 5.9261385 5.8106702 5.81957 5.9191909 5.6957764 6.0011841 C 5.5719827 6.0831773 5.4373941 6.1396195 5.2927002 6.170166 C 5.3055619 6.2473361 5.3268067 6.311013 5.3557454 6.3608521 C 5.3862919 6.4106911 5.4214894 6.4497355 5.4616821 6.4786743 C 5.5034826 6.5076131 5.5483263 6.5278818 5.5965576 6.5391357 C 5.6447889 6.5503897 5.6949726 6.556189 5.7464193 6.556189 C 5.8155508 6.556189 5.8835341 6.5417195 5.9510579 6.5127808 C 6.0201895 6.483842 6.082431 6.4433046 6.1370931 6.3918579 L 6.4094279 6.7970011 C 6.3081422 6.8822098 6.1972099 6.9473222 6.0766317 6.9923381 C 5.9576611 7.0373539 5.8380587 7.0600342 5.7174805 7.0600342 C 5.5663557 7.0600342 5.4303317 7.0421771 5.3097534 7.0068075 C 5.1907829 6.9714378 5.0885208 6.9169478 5.0033122 6.8429932 C 4.9197113 6.7706462 4.8545988 6.6780304 4.8079753 6.5654907 C 4.7613517 6.4545587 4.7348244 6.3228985 4.7283936 6.170166 C 4.4052438 6.1106807 4.1640868 5.9491055 4.0049235 5.6854411 C 3.8457602 5.4217766 3.7661784 5.0600411 3.7661784 4.600236 C 3.7661784 4.3156713 3.799481 4.0696911 3.8653971 3.8622965 C 3.932921 3.6532943 4.0245606 3.4810966 4.1403158 3.346049 C 4.2576786 3.2093936 4.394162 3.1081077 4.5501099 3.0421916 C 4.7076654 2.9746678 4.8754993 2.9409058 5.0539551 2.9409058 z M 6.8677979 2.9941325 L 7.4703451 2.9941325 L 7.4703451 5.637382 L 8.8015299 5.637382 L 8.8015299 6.1458781 L 6.8677979 6.1458781 L 6.8677979 2.9941325 z M 5.0446533 3.4762736 C 4.9305059 3.4762736 4.8320909 3.5003893 4.7500977 3.5486206 C 4.6681044 3.5952442 4.6005805 3.6651797 4.547526 3.7584269 C 4.4944716 3.8500664 4.4554271 3.9634102 4.4297038 4.0984578 C 4.4055881 4.2318978 4.3935303 4.3848028 4.3935303 4.5568278 C 4.3935303 4.9266011 4.4431971 5.2039317 4.5428752 5.3888184 C 4.6441609 5.573705 4.8081477 5.6663208 5.0348348 5.6663208 C 5.1489822 5.6663208 5.2464211 5.6426644 5.3268066 5.5960409 C 5.4087998 5.5478096 5.4753477 5.477874 5.5267944 5.3862345 C 5.5782412 5.2945951 5.6158502 5.1822274 5.6399658 5.0487874 C 5.6640815 4.9137398 5.6761393 4.7593993 5.6761393 4.5857666 C 5.6761393 4.2127779 5.6274486 3.9344712 5.5293783 3.7511922 C 5.4313079 3.5679133 5.2697327 3.4762736 5.0446533 3.4762736 z " />
  </g>
</svg>
