<?xml version="1.0" encoding="UTF-8" standalone="no"?>
<!-- Created with Inkscape (http://www.inkscape.org/) -->

<svg
   width="10mm"
   height="10mm"
   viewBox="0 0 10 10"
   version="1.1"
   id="svg1"
   inkscape:version="1.3.2 (091e20e, 2023-11-25, custom)"
   sodipodi:docname="tptasm.svg"
   xmlns:inkscape="http://www.inkscape.org/namespaces/inkscape"
   xmlns:sodipodi="http://sodipodi.sourceforge.net/DTD/sodipodi-0.dtd"
   xmlns="http://www.w3.org/2000/svg"
   xmlns:svg="http://www.w3.org/2000/svg">
  <sodipodi:namedview
     id="namedview1"
     pagecolor="#505050"
     bordercolor="#ffffff"
     borderopacity="1"
     inkscape:showpageshadow="0"
     inkscape:pageopacity="0"
     inkscape:pagecheckerboard="1"
     inkscape:deskcolor="#505050"
     inkscape:document-units="mm"
     showgrid="false"
     inkscape:zoom="8.1941057"
     inkscape:cx="12.631031"
     inkscape:cy="18.855017"
     inkscape:window-width="1920"
     inkscape:window-height="1009"
     inkscape:window-x="-8"
     inkscape:window-y="-8"
     inkscape:window-maximized="1"
     inkscape:current-layer="layer1" />
  <defs
     id="defs1">
    <inkscape:path-effect
       effect="fillet_chamfer"
       id="path-effect1"
       is_visible="true"
       lpeversion="1"
       nodesatellites_param="F,0,0,1,0,1.3229167,0,1 @ F,0,0,1,0,1.3229167,0,1 @ F,0,0,1,0,1.3229167,0,1 @ F,0,0,1,0,1.3229167,0,1"
       radius="5"
       unit="px"
       method="auto"
       mode="F"
       chamfer_steps="1"
       flexible="false"
       use_knot_distance="true"
       apply_no_radius="true"
       apply_with_radius="true"
       only_selected="false"
       hide_knots="false" />
  </defs>
  <g
     inkscape:label="Слой 1"
     inkscape:groupmode="layer"
     id="layer1">
    <path
       id="rect1"
       style="fill:#808080;stroke-width:23.8235"
       d="M 1.3229167 0 A 1.3229167 1.3229167 0 0 0 0 1.3229167 L 0 8.6769897 A 1.3229167 1.3229167 0 0 0 1.3229167 9.9999064 L 8.6769897 9.9999064 A 1.3229167 1.3229167 0 0 0 9.9999064 8.6769897 L 9.9999064 1.3229167 A 1.3229167 1.3229167 0 0 0 8.6769897 0 L 1.3229167 0 z M 1.1668538 1.4211019 L 3.5010783 1.4211019 L 3.5010783 1.9151286 L 2.6380819 1.9151286 L 2.6380819 4.5728475 L 2.030367 4.5728475 L 2.030367 1.9151286 L 1.1668538 1.9151286 L 1.1668538 1.4211019 z M 4.0173258 1.4211019 L 4.9407837 1.4211019 C 5.1449629 1.4211019 5.3253713 1.4432654 5.4813192 1.4882812 C 5.6388748 1.5316894 5.770535 1.5963425 5.8766439 1.6815511 C 5.9843604 1.7667597 6.0653777 1.8718927 6.1200399 1.9972941 C 6.1763097 2.1210878 6.2047892 2.2633704 6.2047892 2.4241414 C 6.2047892 2.5881279 6.1772858 2.7400568 6.1226237 2.8799276 C 6.0679616 3.0181906 5.9869443 3.137793 5.8792277 3.2390788 C 5.7715111 3.3403645 5.6369225 3.419487 5.4761515 3.4757568 C 5.3153805 3.5320267 5.1292302 3.5599894 4.9170125 3.5599894 L 4.6152222 3.5599894 L 4.6152222 4.5728475 L 4.0173258 4.5728475 L 4.0173258 1.4211019 z M 6.5975301 1.4211019 L 8.9322713 1.4211019 L 8.9322713 1.9151286 L 8.0687581 1.9151286 L 8.0687581 4.5728475 L 7.4610433 4.5728475 L 7.4610433 1.9151286 L 6.5975301 1.9151286 L 6.5975301 1.4211019 z M 4.6152222 1.9130615 L 4.6152222 3.0680298 L 4.9459513 3.0680298 C 5.0488448 3.0680298 5.1395083 3.0545365 5.2182861 3.0272054 C 5.2970639 2.9982666 5.3631524 2.9572699 5.4162069 2.9042155 C 5.470869 2.8511611 5.5118657 2.7874841 5.5391968 2.7135295 C 5.5681356 2.6395748 5.582605 2.5566053 5.582605 2.4649658 C 5.582605 2.3813649 5.5685949 2.3061469 5.5412638 2.238623 C 5.5155405 2.1694915 5.4755199 2.1106377 5.4208577 2.0624064 C 5.3678033 2.0141751 5.3002793 1.9770254 5.2182861 1.9513021 C 5.1362929 1.9255787 5.038854 1.9130615 4.9263143 1.9130615 L 4.6152222 1.9130615 z M 5.1578247 5.3190552 C 5.2205254 5.3190552 5.2856378 5.3224429 5.3531616 5.3288737 C 5.4222931 5.3336968 5.4898171 5.3409315 5.5557332 5.3505778 C 5.6232571 5.3586163 5.6879101 5.368722 5.7490031 5.3815837 C 5.8117038 5.3928376 5.8686054 5.4048955 5.9200521 5.4177572 L 5.9200521 5.9603597 C 5.8686054 5.9410672 5.8121631 5.9237268 5.7510701 5.9076497 C 5.6899772 5.8915726 5.626817 5.8775626 5.5609009 5.8663086 C 5.4965925 5.8534469 5.4314801 5.8438006 5.365564 5.8373698 C 5.2996479 5.830939 5.236947 5.828068 5.1774618 5.828068 C 5.0729606 5.828068 4.9841918 5.8367382 4.9118449 5.854423 C 4.8394979 5.8705001 4.7801848 5.8936397 4.7335612 5.9241862 C 4.6869376 5.953125 4.6531756 5.9892985 4.6322754 6.0327067 C 4.6113752 6.0761149 4.6007528 6.1243463 4.6007528 6.1774007 C 4.6007528 6.2433168 4.6224569 6.3007352 4.6658651 6.3489665 C 4.710881 6.3955901 4.7697348 6.4380222 4.8420817 6.4766073 C 4.9160364 6.5135846 4.9990059 6.548782 5.0906453 6.5825439 C 5.1838925 6.6146981 5.2784031 6.6504124 5.3748657 6.6889974 C 5.472936 6.7259747 5.5679634 6.7684069 5.6596029 6.8166382 C 5.75285 6.8648695 5.8358196 6.9237233 5.9081665 6.9928548 C 5.9821212 7.0619863 6.0404582 7.1439797 6.0838664 7.2388346 C 6.1288823 7.3320818 6.1515625 7.4430141 6.1515625 7.5716309 C 6.1515625 7.7436558 6.119236 7.8931732 6.0549276 8.0201823 C 5.9922269 8.1471914 5.9039749 8.2523244 5.7898275 8.3359253 C 5.6756801 8.4179185 5.539656 8.4791839 5.3821004 8.5193766 C 5.2245448 8.5595694 5.052864 8.5793213 4.8663696 8.5793213 C 4.7007755 8.5793213 4.5406357 8.569675 4.3862956 8.5503825 C 4.2319554 8.53109 4.0790504 8.4992802 3.9279256 8.4542643 L 3.9279256 7.8682536 C 4.0018803 7.8939769 4.0790505 7.9180926 4.159436 7.9406006 C 4.2398215 7.9631085 4.3203795 7.9828604 4.400765 8.0005452 C 4.4827582 8.0166223 4.5637755 8.0296563 4.644161 8.0393026 C 4.7245465 8.0489488 4.8026928 8.053772 4.8782552 8.053772 C 4.9907949 8.053772 5.0862816 8.0441257 5.1650594 8.0248332 C 5.2438372 8.0055407 5.3084903 7.9790134 5.3583293 7.9452515 C 5.4081683 7.9114896 5.4443418 7.871469 5.4668498 7.8248454 C 5.4893577 7.7782218 5.5004395 7.7266027 5.5004395 7.6703328 C 5.5004395 7.5931628 5.4777592 7.5290265 5.4327433 7.4775798 C 5.3893352 7.4245253 5.3314575 7.3777294 5.2591105 7.3375366 C 5.1867636 7.2973439 5.1043108 7.2611703 5.0110636 7.2290161 C 4.9194242 7.1968619 4.8253729 7.1621238 4.7289103 7.1251465 C 4.6340554 7.0881692 4.5400042 7.0467131 4.446757 7.0000895 C 4.3551175 6.9534659 4.2731241 6.8955882 4.2007772 6.8264567 C 4.1284302 6.7573252 4.0695764 6.6753318 4.0245605 6.5804769 C 3.9811524 6.4840143 3.9594482 6.3682589 3.9594482 6.2332113 C 3.9594482 6.1094176 3.9821285 5.99171 4.0271444 5.880778 C 4.0721602 5.769846 4.1425551 5.6733832 4.2390177 5.59139 C 4.3354803 5.5077891 4.4594466 5.4422173 4.6105713 5.393986 C 4.761696 5.344147 4.9439993 5.3190552 5.1578247 5.3190552 z M 1.9192627 5.3722819 L 2.7486694 5.3722819 L 3.6819458 8.5240275 L 3.0261719 8.5240275 L 2.8525391 7.9018433 L 1.7528646 7.9018433 L 1.5745809 8.5240275 L 0.98598633 8.5240275 L 1.9192627 5.3722819 z M 6.6698771 5.3722819 L 7.3406372 5.3722819 L 7.6176229 6.2668009 L 7.7504313 6.7706462 L 7.8832397 6.2957397 L 8.1746948 5.3722819 L 8.8573405 5.3722819 L 9.0139201 8.5240275 L 8.4909546 8.5240275 L 8.433077 6.7417074 L 8.4113729 6.0306396 L 8.2594442 6.5127808 L 7.9095947 7.5861003 L 7.5380412 7.5861003 L 7.2222982 6.5127808 L 7.0894897 6.0306396 L 7.0729533 6.727238 L 7.0197266 8.5240275 L 6.5158813 8.5240275 L 6.6698771 5.3722819 z M 2.3099365 5.9510579 L 1.8949748 7.4171183 L 2.7197306 7.4171183 L 2.3099365 5.9510579 z " />
  </g>
</svg>
